<svg viewBox="166.3375000000001 194.62650602409644 1568.3250000000003 1400.3614457831325" fill="none" xmlns="http://www.w3.org/2000/svg" xmlns:xlink="http://www.w3.org/1999/xlink" overflow="visible" width="1568.3250000000003px" height="1400.3614457831325px"><g id="Master/Compositions/Stats and Graphs"><g id="Background Elements Office" transform="translate(173 152) scale(1 1)"><g id="Background Elements Office/Graphs and Stats"><g id="Stock "><path id="Fill 45" fill-rule="evenodd" clip-rule="evenodd" d="M2.96897 907.842C-1.41131 902.803 -0.883195 895.155 4.14601 890.762L687.325 294.676C691.874 290.712 698.643 290.708 703.189 294.672L978.318 534.526L1277.16 260.754C1279.69 258.426 1283.09 257.292 1286.51 257.641C1289.93 257.983 1293.05 259.772 1295.07 262.549L1333.07 314.71L1531.61 97.8032C1535.08 92.0891 1542.52 90.294 1548.21 93.7736C1553.9 97.2567 1555.71 104.707 1552.23 110.414L1344.28 342.782C1342.18 346.231 1338.5 348.403 1334.47 348.569C1330.5 348.738 1326.6 346.877 1324.22 343.612L1283.51 287.74L986.668 559.683C982.139 563.834 975.215 563.913 970.589 559.88L695.264 319.856C695.264 319.856 313.32 653.11 122.349 819.736C88.2369 849.499 20.0137 909.025 20.0137 909.025C17.7287 911.021 14.8982 912 12.0851 912C8.71269 912 5.36103 910.592 2.96897 907.842Z" fill="black"/></g><g id="Pie Chart"><path id="Fill 46" fill-rule="evenodd" clip-rule="evenodd" d="M331.512 86.783C347.661 105.002 357.467 128.972 357.467 155.233C357.467 212.247 311.248 258.467 254.234 258.467C197.22 258.467 151 212.247 151 155.233C151 98.219 197.22 52 254.234 52V155.233L331.512 86.783Z" fill="black"/><path id="Fill 47" fill-rule="evenodd" clip-rule="evenodd" d="M642.819 89.0291H396.91C395.805 89.0291 394.91 88.1331 394.91 87.0291C394.91 85.9251 395.805 85.0291 396.91 85.0291H642.819C643.923 85.0291 644.819 85.9251 644.819 87.0291C644.819 88.1331 643.923 89.0291 642.819 89.0291" fill="black"/><path id="Fill 48" fill-rule="evenodd" clip-rule="evenodd" d="M642.819 134.499H396.91C395.805 134.499 394.91 133.603 394.91 132.499C394.91 131.395 395.805 130.499 396.91 130.499H642.819C643.923 130.499 644.819 131.395 644.819 132.499C644.819 133.603 643.923 134.499 642.819 134.499" fill="black"/><path id="Fill 49" fill-rule="evenodd" clip-rule="evenodd" d="M642.819 179.967H396.91C395.805 179.967 394.91 179.071 394.91 177.967C394.91 176.863 395.805 175.967 396.91 175.967H642.819C643.923 175.967 644.819 176.863 644.819 177.967C644.819 179.071 643.923 179.967 642.819 179.967" fill="black"/><path id="Fill 50" fill-rule="evenodd" clip-rule="evenodd" d="M642.819 225.437H396.91C395.805 225.437 394.91 224.541 394.91 223.437C394.91 222.333 395.805 221.437 396.91 221.437H642.819C643.923 221.437 644.819 222.333 644.819 223.437C644.819 224.541 643.923 225.437 642.819 225.437" fill="black"/></g><g id="Graph"><g id="Graph Bars"><path id="Rectangle (Stroke)" fill-rule="evenodd" clip-rule="evenodd" d="M1083.57 1104H1004.57V1420H1083.57V1104ZM998.57 1098V1426H1089.57V1098H998.57Z" fill="black"/><path id="Rectangle Copy (Stroke)" fill-rule="evenodd" clip-rule="evenodd" d="M1217.57 1192H1138.57V1420H1217.57V1192ZM1132.57 1186V1426H1223.57V1186H1132.57Z" fill="black"/><path id="Rectangle Copy 2 (Stroke)" fill-rule="evenodd" clip-rule="evenodd" d="M1351.57 851H1272.57V1420H1351.57V851ZM1266.57 845V1426H1357.57V845H1266.57Z" fill="black"/><path id="Rectangle Copy 3 (Stroke)" fill-rule="evenodd" clip-rule="evenodd" d="M1485.57 660H1406.57V1420H1485.57V660ZM1400.57 654V1426H1491.57V654H1400.57Z" fill="black"/><path id="Rectangle Copy 7" fill-rule="evenodd" clip-rule="evenodd" d="M1089.57 1426V1098H998.57V1426H1089.57ZM1004.57 1104H1083.57V1420H1004.57V1104Z" fill="black"/><path id="Rectangle Copy 6" fill-rule="evenodd" clip-rule="evenodd" d="M1223.57 1426V1186H1132.57V1426H1223.57ZM1138.57 1192H1217.57V1420H1138.57V1192Z" fill="black"/><path id="Rectangle Copy 5" fill-rule="evenodd" clip-rule="evenodd" d="M1357.57 1426V845H1266.57V1426H1357.57ZM1272.57 851H1351.57V1420H1272.57V851Z" fill="black"/><path id="Rectangle Copy 4" fill-rule="evenodd" clip-rule="evenodd" d="M1491.57 1426V654H1400.57V1426H1491.57ZM1406.57 660H1485.57V1420H1406.57V660Z" fill="black"/></g><path id="Graph Horizon (Stroke)" fill-rule="evenodd" clip-rule="evenodd" d="M958 1425.5H1524.08V1431.5H958V1425.5Z" fill="black"/><path id="Graph Horizon Copy" d="M1524.08 1423V1429H958V1423H1524.08Z" fill="black"/></g></g></g><g id="Character"><g id="Lower Body Sitting"><g id="chair"><g id="Group 19"><path id="Fill 17" fill-rule="evenodd" clip-rule="evenodd" d="M564.602 1156.68C533.882 1156.68 506.967 1153.85 483.093 1148.16C448.711 1139.97 421.523 1126.08 399.976 1105.69C370.375 1077.69 352.976 1039.12 345.218 984.32C338.652 937.934 339.715 884.875 340.842 828.7C341.197 811.064 341.562 792.827 341.695 774.5L383.693 774.803C383.559 793.4 383.191 811.774 382.834 829.543C380.699 935.976 378.855 1027.9 428.84 1075.18C462.591 1107.11 520.709 1119.48 606.518 1112.99L609.686 1154.87C593.797 1156.07 578.793 1156.68 564.602 1156.68" fill="black"/></g><path id="Fill 20" fill-rule="evenodd" clip-rule="evenodd" d="M556.891 1026.95H393.447C373.115 1026.95 356.633 1010.47 356.633 990.135V725.813C356.633 705.481 373.115 688.999 393.447 688.999H556.891C577.223 688.999 593.705 705.481 593.705 725.813V990.135C593.705 1010.47 577.223 1026.95 556.891 1026.95" fill="white"/><g id="Group 24"><path id="Fill 22" fill-rule="evenodd" clip-rule="evenodd" d="M393.447 691C374.251 691 358.633 706.618 358.633 725.814V990.135C358.633 1009.33 374.251 1024.95 393.447 1024.95H556.891C576.088 1024.95 591.706 1009.33 591.706 990.135V725.814C591.706 706.618 576.088 691 556.891 691H393.447ZM556.891 1028.95H393.447C372.045 1028.95 354.633 1011.54 354.633 990.135V725.814C354.633 704.412 372.045 687 393.447 687H556.891C578.294 687 595.706 704.412 595.706 725.814V990.135C595.706 1011.54 578.294 1028.95 556.891 1028.95V1028.95Z" fill="black"/></g><path id="Fill 25" fill-rule="evenodd" clip-rule="evenodd" d="M636.613 1523.87H680.6V1161.61H636.613V1523.87Z" fill="black"/><path id="Fill 27" fill-rule="evenodd" clip-rule="evenodd" d="M548.287 1535.01C548.287 1516.71 563.125 1501.87 581.428 1501.87H735.783C754.086 1501.87 768.923 1516.71 768.923 1535.01H548.287Z" fill="black"/><path id="Fill 28" fill-rule="evenodd" clip-rule="evenodd" d="M752.164 1190.17H565.363C497.553 1191.2 497.495 1076.66 565.365 1077.69C565.363 1077.69 752.164 1077.69 752.164 1077.69C780.234 1077.69 802.99 1100.45 802.99 1128.52C806.905 1159.98 785.263 1190.47 752.164 1190.17" fill="white"/><path id="Fill 29" fill-rule="evenodd" clip-rule="evenodd" d="M564.516 1079.69C547.272 1079.69 533.137 1087.68 524.616 1102.27C513.731 1120.9 513.733 1146.94 524.622 1165.58C533.287 1180.42 547.727 1188.46 565.333 1188.17H752.183C752.332 1188.18 752.482 1188.18 752.63 1188.18C766.308 1188.18 778.817 1182.58 787.897 1172.39C798.083 1160.96 802.984 1144.65 801.007 1128.76L800.992 1128.52C800.992 1101.59 779.088 1079.69 752.165 1079.69C750.302 1079.69 565.857 1079.69 565.37 1079.69C565.084 1079.69 564.799 1079.69 564.516 1079.69M564.449 1192.18C545.796 1192.18 530.443 1183.48 521.168 1167.6C509.585 1147.77 509.582 1120.07 521.162 1100.25C530.582 1084.12 546.299 1075.41 565.397 1075.69L565.396 1075.74C565.957 1075.69 566.643 1075.69 567.464 1075.69H752.165C781.253 1075.69 804.925 1099.32 804.992 1128.39C807.101 1145.62 801.962 1162.62 790.883 1175.05C781.033 1186.11 767.464 1192.18 752.632 1192.18C752.472 1192.18 752.313 1192.18 752.153 1192.17H565.364C565.059 1192.18 564.752 1192.18 564.449 1192.18" fill="black"/><path id="Fill 43" fill-rule="evenodd" clip-rule="evenodd" d="M548.287 1545.48H558.753V1535.01H548.287V1545.48Z" fill="black"/><path id="Fill 44" fill-rule="evenodd" clip-rule="evenodd" d="M653.373 1545.48H663.839V1535.01H653.373V1545.48Z" fill="black"/><path id="Fill 45" fill-rule="evenodd" clip-rule="evenodd" d="M758.459 1545.48H768.924V1535.01H758.459V1545.48Z" fill="black"/><path id="Fill 46" fill-rule="evenodd" clip-rule="evenodd" d="M565.207 1555.52C565.107 1577.65 531.464 1577.64 531.367 1555.52C531.467 1533.39 565.11 1533.39 565.207 1555.52" fill="white"/><path id="Fill 47" fill-rule="evenodd" clip-rule="evenodd" d="M548.287 1540.92C541.133 1540.92 533.412 1545.49 533.367 1555.53C533.411 1565.54 541.132 1570.11 548.286 1570.11C555.438 1570.11 563.156 1565.55 563.206 1555.52C563.158 1545.49 555.44 1540.92 548.289 1540.92H548.287ZM548.287 1574.11H548.286C538.925 1574.11 529.421 1567.73 529.367 1555.53C529.422 1543.31 538.927 1536.92 548.287 1536.92H548.289C557.649 1536.92 567.153 1543.31 567.206 1555.51V1555.53C567.151 1567.73 557.647 1574.11 548.287 1574.11V1574.11Z" fill="black"/><path id="Fill 48" fill-rule="evenodd" clip-rule="evenodd" d="M675.684 1555.52C675.584 1577.65 641.941 1577.64 641.844 1555.52C641.944 1533.39 675.587 1533.39 675.684 1555.52" fill="white"/><path id="Fill 49" fill-rule="evenodd" clip-rule="evenodd" d="M658.765 1540.92C651.611 1540.92 643.889 1545.49 643.844 1555.53C643.888 1565.54 651.608 1570.11 658.763 1570.11C665.915 1570.11 673.634 1565.55 673.684 1555.52C673.635 1545.49 665.917 1540.92 658.765 1540.92M658.764 1574.11H658.762C649.402 1574.11 639.898 1567.73 639.844 1555.53C639.899 1543.31 649.404 1536.92 658.764 1536.92H658.766C668.126 1536.92 677.63 1543.31 677.684 1555.51V1555.53C677.629 1567.73 668.124 1574.11 658.764 1574.11" fill="black"/><path id="Fill 50" fill-rule="evenodd" clip-rule="evenodd" d="M785.843 1555.52C785.743 1577.65 752.1 1577.64 752.004 1555.52C752.103 1533.39 785.747 1533.39 785.843 1555.52" fill="white"/><path id="Fill 51" fill-rule="evenodd" clip-rule="evenodd" d="M768.925 1540.92C761.771 1540.92 754.049 1545.49 754.004 1555.53C754.048 1565.54 761.768 1570.11 768.923 1570.11C776.075 1570.11 783.794 1565.55 783.844 1555.52C783.795 1545.49 776.077 1540.92 768.925 1540.92M768.924 1574.11H768.922C759.562 1574.11 750.058 1567.73 750.004 1555.53C750.059 1543.31 759.564 1536.92 768.924 1536.92H768.926C778.286 1536.92 787.79 1543.31 787.844 1555.51V1555.53C787.789 1567.73 778.284 1574.11 768.924 1574.11" fill="black"/></g><g id="blue"><g id="shoe"><path id="Fill 1" fill-rule="evenodd" clip-rule="evenodd" d="M1004.44 1570.49C1004.14 1569.36 1004.85 1561.76 1003.64 1561.08C1003.26 1560.71 1002.75 1560.51 1002.23 1560.53L976.932 1561.19C973.493 1561.05 975.45 1569.35 974.921 1571.11L946.379 1571.72C945.022 1503.05 944.355 1433.7 943.873 1365.03L1031.61 1364.46C1031.97 1416.67 1032.47 1470.58 1033.27 1522.63C1033.26 1523.77 1034.34 1524.71 1035.47 1524.59C1056.36 1523.36 1086.36 1539.05 1085.71 1568.77L1004.44 1570.49Z" fill="white"/><path id="Fill 3" fill-rule="evenodd" clip-rule="evenodd" d="M1033.59 1362.54C1033.95 1415.29 1034.46 1470.03 1035.27 1522.6C1059.11 1521.59 1088.81 1538.44 1087.78 1570.62C1067.37 1571.08 1022.5 1572.09 1002.48 1572.54L1002.26 1562.53L976.984 1563.2L976.908 1573.11L944.424 1573.84C943.08 1505.04 942.309 1431.86 941.859 1363.14L1033.59 1362.54ZM1029.62 1366.37L945.885 1366.93C946.36 1434.32 947.024 1502.26 948.336 1569.64L972.935 1569.14C973.12 1565.93 971.852 1559.19 976.877 1559.18L1002.16 1558.52C1007.29 1558.29 1006.22 1565.21 1006.39 1568.45C1024.16 1568.08 1065.43 1567.23 1083.58 1566.86C1083.38 1539.44 1054.37 1525.4 1035.5 1526.59C1033.3 1526.75 1031.26 1524.87 1031.27 1522.66C1030.48 1471.18 1029.98 1417.98 1029.62 1366.37V1366.37Z" fill="black"/><path id="Fill 5" fill-rule="evenodd" clip-rule="evenodd" d="M946.137 1563.51L946.061 1559.51L1083.45 1556.89L1083.53 1560.89L946.137 1563.51Z" fill="black"/><path id="Fill 9" fill-rule="evenodd" clip-rule="evenodd" d="M1035.33 1561.81L1035.25 1557.81C1049.88 1557.53 1061.59 1545.46 1061.36 1530.91L1065.36 1530.84C1065.63 1547.59 1052.16 1561.48 1035.33 1561.81" fill="black"/><path id="Fill 11" fill-rule="evenodd" clip-rule="evenodd" d="M1031.52 1489.25C1031.52 1489.25 1015.34 1488.39 1015.7 1503.02C1015.85 1509.09 1010.29 1508.27 998.6 1508.44L946.336 1509.18" fill="white"/><path id="Fill 13" fill-rule="evenodd" clip-rule="evenodd" d="M946.333 1511.18C945.242 1511.18 944.35 1510.31 944.334 1509.21C944.318 1508.11 945.201 1507.2 946.306 1507.18L998.57 1506.44C999.998 1506.42 1001.34 1506.41 1002.58 1506.41C1007.84 1506.39 1011.99 1506.37 1013.18 1505.14C1013.32 1505 1013.74 1504.57 1013.7 1503.07C1013.59 1498.43 1014.96 1494.68 1017.79 1491.94C1023.02 1486.86 1031.28 1487.23 1031.63 1487.25C1032.73 1487.31 1033.57 1488.25 1033.52 1489.36C1033.46 1490.46 1032.51 1491.29 1031.42 1491.25C1031.29 1491.24 1024.5 1490.98 1020.56 1494.82C1018.58 1496.76 1017.62 1499.5 1017.7 1502.97C1017.75 1505.11 1017.21 1506.73 1016.05 1507.93C1013.69 1510.36 1009.51 1510.38 1002.6 1510.41C1001.36 1510.41 1000.04 1510.42 998.627 1510.44L946.362 1511.18H946.333Z" fill="black"/></g><path id="leg" fill-rule="evenodd" clip-rule="evenodd" d="M1061.81 1480.02L924.445 1481.72C923.293 1388.13 922.915 1289.33 922.758 1196.09C926.375 1109.42 824.169 1093.15 755.864 1091.36C676.501 1083.8 669.248 953.846 759.026 954.019C887.568 954.869 1032.2 1008.39 1056.04 1150.52C1058.84 1166.03 1060.12 1182.42 1060.2 1198.16C1060.22 1290.06 1060.7 1387.85 1061.81 1480.02" fill="#2945ff"/></g><g id="black"><g id="shoe_2"><path id="Fill 7" fill-rule="evenodd" clip-rule="evenodd" d="M972.667 1561C972.394 1546.44 960.491 1534.75 946.048 1534.75C945.909 1534.75 945.772 1534.75 945.635 1534.75L945.572 1530.75C945.73 1530.75 945.891 1530.75 946.048 1530.75C962.663 1530.75 976.352 1544.19 976.667 1560.93L972.667 1561Z" fill="black"/><path id="Fill 34" fill-rule="evenodd" clip-rule="evenodd" d="M899.966 1573.57C899.668 1572.47 900.383 1565.17 899.181 1564.52C898.799 1564.17 898.289 1563.98 897.762 1563.99L872.469 1564.65C869.051 1564.48 870.971 1572.45 870.451 1574.19L841.909 1574.8C840.686 1509.77 839.857 1438.94 839.445 1374.15L927.177 1373.55C929.645 1424.53 923.996 1481.12 931.023 1529.4C951.154 1528.15 981.904 1542.8 981.243 1571.85L899.966 1573.57Z" fill="white"/><path id="Fill 35" fill-rule="evenodd" clip-rule="evenodd" d="M929.164 1371.62C929.516 1423.59 930.031 1475.56 930.825 1527.48C953.656 1526.48 984.306 1541.89 983.311 1573.62C962.901 1574.08 918.029 1575.09 898.012 1575.54L897.801 1565.91L872.522 1566.58L872.438 1576.11L839.954 1576.84C838.638 1509.92 837.883 1439.05 837.432 1372.24L929.164 1371.62ZM925.19 1375.49L841.458 1376.07C841.923 1441.72 842.594 1507.05 843.87 1572.8L868.469 1572.29C868.64 1569.12 867.435 1562.71 872.418 1562.72L897.697 1562.06C902.748 1561.78 901.792 1568.41 901.924 1571.6C919.692 1571.24 960.968 1570.39 979.114 1570.01C978.926 1543.24 949.198 1530.1 931.058 1531.32C928.906 1531.48 926.82 1529.72 926.825 1527.55C926.051 1476.89 925.54 1426.19 925.19 1375.49V1375.49Z" fill="black"/><path id="Fill 36" fill-rule="evenodd" clip-rule="evenodd" d="M841.676 1566.98L841.6 1562.98L978.987 1560.35L979.064 1564.35L841.676 1566.98Z" fill="black"/><path id="Fill 37" fill-rule="evenodd" clip-rule="evenodd" d="M868.203 1564.47C867.938 1550.51 856.053 1539.32 841.617 1539.32C841.473 1539.32 841.33 1539.32 841.185 1539.32L841.123 1535.32C841.288 1535.32 841.454 1535.32 841.617 1535.32C858.224 1535.32 871.896 1548.26 872.203 1564.39L868.203 1564.47Z" fill="black"/><path id="Fill 38" fill-rule="evenodd" clip-rule="evenodd" d="M930.865 1565.27L930.787 1561.27C945.421 1560.99 957.14 1549.41 956.913 1535.46L960.913 1535.39C961.176 1551.54 947.697 1564.94 930.865 1565.27" fill="black"/><path id="Fill 39" fill-rule="evenodd" clip-rule="evenodd" d="M927.089 1495.42C927.089 1495.42 910.913 1494.6 911.269 1508.67C911.415 1514.51 905.858 1513.73 894.163 1513.89L841.9 1514.65" fill="white"/><path id="Fill 40" fill-rule="evenodd" clip-rule="evenodd" d="M841.898 1516.64C840.807 1516.64 839.915 1515.77 839.899 1514.67C839.883 1513.57 840.766 1512.66 841.871 1512.64L894.135 1511.89C895.561 1511.87 896.897 1511.87 898.142 1511.86C903.44 1511.84 907.624 1511.82 908.794 1510.61C908.92 1510.48 909.303 1510.09 909.269 1508.72C909.158 1504.33 910.478 1500.76 913.192 1498.11C918.401 1493.03 926.837 1493.4 927.19 1493.42C928.293 1493.47 929.142 1494.41 929.086 1495.52C929.032 1496.62 928.051 1497.46 926.991 1497.41C926.835 1497.41 919.89 1497.15 915.971 1500.99C914.07 1502.85 913.185 1505.35 913.267 1508.62C913.319 1510.67 912.794 1512.23 911.665 1513.39C909.324 1515.81 905.123 1515.83 898.162 1515.86C896.928 1515.87 895.605 1515.87 894.192 1515.89L841.927 1516.64H841.898Z" fill="black"/></g><g id="leg"><path id="Fill 41" fill-rule="evenodd" clip-rule="evenodd" d="M820.266 1488.24C817.968 1388.45 820.654 1282.25 817.379 1182.42C807.906 1107.78 714.656 1096.11 652.059 1093.31C571.76 1085.67 564.785 956.634 655.441 956.91C759.407 958.622 881.634 992.088 931.658 1092.72C949.436 1127.57 956.29 1166.25 955.979 1204.72C955.994 1296.43 956.49 1395.05 957.632 1486.51L820.266 1488.24Z" fill="black"/><path id="Fill 42" fill-rule="evenodd" clip-rule="evenodd" d="M536.979 982.075C537.437 834.015 802.56 834.03 802.992 982.083C802.535 1130.13 537.411 1130.12 536.979 982.075" fill="black"/></g></g><path id="Rectangle" d="M537.619 871.311H670.619V1093.31H596.619C564.034 1093.31 537.619 1066.9 537.619 1034.31V871.311Z" fill="black"/></g><g id="Upper Body" transform="translate(17 301) scale(1 1)"><g id="Upper Body/Peace Sign"><g id="Group 199"><g id="left"><g id="Group-4"><g id="Fill-1"><path id="Vector" fill-rule="evenodd" clip-rule="evenodd" d="M967.91 269.39L1056.91 265.73C1058.95 265.666 1060.98 266.008 1062.89 266.735C1064.8 267.462 1066.55 268.561 1068.03 269.967C1069.51 271.373 1070.69 273.059 1071.52 274.927C1072.34 276.795 1072.79 278.808 1072.83 280.85C1073.28 293.963 1073.58 307.117 1073.73 320.31C1073.89 333.5 1073.89 346.75 1073.65 360.08C1073.2 386.75 1072 413.65 1069.14 441.23C1067.58 456.05 1065.54 471.07 1062.64 486.46C1061.15 494.18 1059.45 501.99 1057.43 509.94L1055.81 515.94C1055.28 517.94 1054.63 519.94 1054.04 522.01L1053.59 523.54L1053.36 524.3L1053.04 525.3L1051.69 529.41L1050.29 533.51L1048.69 537.75C1044.53 549.002 1039.3 559.825 1033.06 570.07C1026.99 579.995 1019.59 589.043 1011.06 596.96C1008.99 598.96 1006.74 600.7 1004.53 602.51C1003.42 603.39 1002.24 604.2 1001.1 605.05L999.36 606.39L997.57 607.56C995.21 609.15 992.74 610.56 990.27 611.97L986.46 613.9C985.19 614.55 983.86 615.08 982.57 615.67C972.079 620.202 960.856 622.804 949.44 623.35C926.67 624.58 903.77 617.85 882.83 606.25C881.5 605.57 880.22 604.79 878.92 604.03C877.62 603.27 876.32 602.52 875.05 601.73C872.51 600.09 869.93 598.54 867.44 596.82C864.95 595.1 862.44 593.37 860.03 591.57L858.21 590.21L856.54 588.95L853.27 586.39L850.66 584.29L848.2 582.29C846.6 580.94 844.96 579.59 843.42 578.23C840.28 575.517 837.237 572.783 834.29 570.03C822.931 559.375 812.124 548.147 801.91 536.39C791.91 525 782.6 513.45 773.66 501.78L849 444.11C853.21 440.9 859 441.36 861.89 445.11C869.53 454.82 877.36 464.23 885.36 473.11C893.04 481.678 901.175 489.826 909.73 497.52C911.73 499.33 913.81 501.08 915.83 502.73L917.35 503.96L917.73 504.27L917.98 504.46L918.43 504.8L919.29 505.49L919.91 505.96C921.571 507.197 923.308 508.329 925.11 509.35C928.7 511.35 932.74 512.86 936.9 512.6C937.919 512.521 938.925 512.326 939.9 512.02C940.895 511.723 941.847 511.296 942.73 510.75C944.496 509.664 946.048 508.264 947.31 506.62C949.786 503.292 951.689 499.574 952.94 495.62C953.11 495.03 953.3 494.39 953.52 493.8L953.6 493.57C953.646 493.47 953.683 493.366 953.71 493.26L953.99 492.31L954.54 490.43C954.93 489.19 955.28 487.89 955.62 486.58C955.96 485.27 956.34 484 956.62 482.64C957.98 477.35 959.11 471.72 960.22 466.06C962.33 454.63 963.98 442.7 965.22 430.51C968.99 393.81 969.71 355.28 969.22 316.62C969.09 308.79 968.93 300.95 968.69 293.1C968.93 300.95 969.09 308.79 969.22 316.62C962.54 316.71 957.43 314.17 953.97 310.02C952.183 307.86 950.826 305.379 949.97 302.71C949.021 299.801 948.506 296.769 948.44 293.71C948.28 287.28 949.74 281.38 952.99 277.02C956.24 272.66 961.14 269.81 967.82 269.53" fill="white"/></g><g id="Stroke-3"><path id="Vector_2" d="M944.192 625.47C924.042 625.47 902.612 619.47 881.862 607.98C880.742 607.4 879.602 606.73 878.502 606.08L877.912 605.73L876.522 604.91C875.672 604.42 874.822 603.91 873.992 603.4L871.552 601.85C869.822 600.77 868.042 599.64 866.302 598.44C863.842 596.78 861.302 594.99 858.842 593.16L855.332 590.52L852.052 587.97L845.502 582.62C844.352 581.62 843.202 580.69 842.102 579.72C839.102 577.13 836.002 574.35 832.932 571.49C821.516 560.795 810.662 549.517 800.412 537.7C791.052 527.02 781.782 515.7 772.072 502.99C771.911 502.781 771.793 502.543 771.725 502.289C771.657 502.035 771.639 501.769 771.673 501.508C771.708 501.247 771.793 500.995 771.925 500.767C772.057 500.54 772.233 500.34 772.442 500.18L847.732 442.53C852.732 438.68 859.812 439.26 863.412 443.83C871.552 454.19 879.202 463.3 886.792 471.69C894.426 480.201 902.507 488.299 911.002 495.95C913.242 497.95 915.212 499.6 917.002 501.1L921.002 504.27C922.598 505.458 924.268 506.544 926.002 507.52C930.002 509.74 933.512 510.72 936.702 510.52C937.575 510.456 938.437 510.292 939.272 510.03C940.104 509.779 940.901 509.423 941.642 508.97C943.205 508.005 944.581 506.765 945.702 505.31C948.018 502.17 949.808 498.674 951.002 494.96C951.162 494.41 951.362 493.7 951.622 493.03L951.702 492.8C951.727 492.742 951.747 492.681 951.762 492.62L952.602 489.79C952.972 488.61 953.302 487.38 953.662 486L953.992 484.77C954.232 483.9 954.472 483.04 954.682 482.12C956.092 476.62 957.272 470.72 958.262 465.61C960.262 454.78 961.952 442.87 963.262 430.23C966.522 398.49 967.802 362.94 967.262 318.5C964.423 318.391 961.639 317.689 959.088 316.439C956.537 315.188 954.277 313.417 952.452 311.24C950.521 308.869 949.055 306.155 948.132 303.24C947.118 300.134 946.569 296.896 946.502 293.63C946.322 286.49 948.032 280.29 951.502 275.7C955.282 270.56 960.942 267.7 967.852 267.41L1056.85 263.74C1059.11 263.642 1061.37 263.996 1063.49 264.781C1065.61 265.565 1067.55 266.765 1069.2 268.31C1070.93 269.91 1072.32 271.839 1073.29 273.984C1074.26 276.129 1074.79 278.447 1074.85 280.8C1075.33 294.93 1075.62 307.85 1075.75 320.3C1075.92 334.22 1075.9 347.25 1075.67 360.13C1075.14 390.96 1073.67 416.8 1071.15 441.45C1069.42 457.89 1067.28 472.74 1064.62 486.84C1063.03 495.11 1061.32 502.84 1059.39 510.44L1057.76 516.44C1057.4 517.8 1056.99 519.19 1056.57 520.58C1056.37 521.24 1056.18 521.9 1055.98 522.58L1054.98 525.93L1053.62 530.07L1052.21 534.18L1050.59 538.48C1046.39 549.854 1041.1 560.795 1034.79 571.15C1028.62 581.234 1021.09 590.426 1012.42 598.47C1010.7 600.11 1008.82 601.64 1007.01 603.11L1005.81 604.11C1005.04 604.73 1004.27 605.29 1003.52 605.83L1002.31 606.71L1000.55 607.98L998.692 609.2C996.212 610.87 993.592 612.36 991.272 613.68L987.382 615.68C986.462 616.16 985.512 616.57 984.592 616.97L983.412 617.49C972.701 622.147 961.23 624.811 949.562 625.35C947.762 625.39 946.002 625.47 944.192 625.47ZM776.472 502.14C785.682 514.14 794.472 524.89 803.412 535.07C813.579 546.777 824.34 557.955 835.652 568.56C838.652 571.39 841.742 574.13 844.732 576.71C845.822 577.71 846.942 578.61 848.072 579.55L851.932 582.74L854.532 584.83L861.232 589.94C863.662 591.74 866.132 593.49 868.562 595.14C870.242 596.3 871.992 597.4 873.682 598.47C874.502 598.99 875.322 599.47 876.132 600.03C876.942 600.59 877.722 601.03 878.532 601.46L879.952 602.29L880.542 602.64C881.642 603.29 882.682 603.9 883.752 604.46C905.752 616.63 928.402 622.46 949.342 621.33C960.515 620.787 971.5 618.24 981.772 613.81L982.982 613.28C983.882 612.89 984.722 612.52 985.542 612.1L989.362 610.16C991.532 608.93 994.082 607.48 996.462 605.88L998.262 604.7L999.922 603.49L1001.16 602.59C1001.87 602.08 1002.59 601.59 1003.28 601.01L1004.47 600.01C1006.3 598.53 1008.03 597.12 1009.67 595.55C1018.08 587.748 1025.38 578.832 1031.37 569.05C1037.54 558.907 1042.72 548.19 1046.82 537.05L1048.43 532.8L1049.81 528.8L1052.14 521.46L1052.73 519.46C1053.13 518.11 1053.54 516.76 1053.89 515.46L1055.51 509.46C1057.41 501.95 1059.11 494.31 1060.68 486.13C1063.32 472.13 1065.44 457.39 1067.16 441.06C1069.71 416.53 1071.16 390.8 1071.66 360.06C1071.89 347.22 1071.91 334.23 1071.74 320.34C1071.61 307.92 1071.32 295.03 1070.84 280.93C1070.8 279.107 1070.39 277.311 1069.63 275.649C1068.88 273.986 1067.81 272.491 1066.47 271.25C1065.21 270.064 1063.72 269.143 1062.1 268.54C1060.47 267.937 1058.74 267.665 1057.01 267.74L968.002 271.39C962.262 271.63 957.782 273.88 954.692 278.07C951.812 281.94 950.372 287.28 950.532 293.52C950.585 296.392 951.067 299.24 951.962 301.97C952.73 304.396 953.948 306.655 955.552 308.63C957 310.344 958.783 311.745 960.791 312.745C962.8 313.746 964.991 314.326 967.232 314.45C967.112 307.45 966.982 301.51 966.832 296.04V295.11C966.832 294.87 966.832 294.62 966.832 294.38V293.09C966.827 293.07 966.827 293.05 966.832 293.03C966.824 292.5 967.027 291.988 967.397 291.607C967.766 291.226 968.272 291.008 968.802 291C969.332 290.992 969.844 291.195 970.225 291.565C970.606 291.934 970.824 292.44 970.832 292.97C971.042 299.79 971.202 307.27 971.362 316.51C971.962 362 970.702 398.27 967.362 430.63C966.022 443.37 964.362 455.39 962.292 466.34C961.292 471.52 960.092 477.49 958.662 483.05C958.452 483.96 958.202 484.89 957.952 485.81C957.842 486.21 957.732 486.6 957.632 487C957.252 488.42 956.912 489.7 956.522 490.94L955.702 493.73C955.666 493.874 955.62 494.014 955.562 494.15L955.462 494.41C955.252 494.97 955.072 495.59 954.942 496.07V496.19C953.593 500.354 951.565 504.266 948.942 507.77C947.526 509.602 945.787 511.161 943.812 512.37C942.792 513 941.692 513.491 940.542 513.83C939.412 514.187 938.244 514.412 937.062 514.5C933.062 514.74 928.862 513.6 924.162 510.99C922.278 509.936 920.467 508.757 918.742 507.46L916.002 505.39L914.482 504.16C912.602 502.63 910.592 500.91 908.312 498.9C899.719 491.174 891.547 482.992 883.832 474.39C876.182 465.93 868.472 456.75 860.262 446.33C858.012 443.46 853.482 443.2 850.162 445.72L776.472 502.14Z" fill="black"/></g></g><g id="Group-8"><g id="Fill-5"><path id="Vector_3" fill-rule="evenodd" clip-rule="evenodd" d="M1048.91 271.93C1048.32 256.957 1047.59 242.017 1046.73 227.11C1046.24 219.2 1051.12 212.45 1057.63 212.03C1064.14 211.61 1069.81 217.74 1070.29 225.73C1071.36 244.19 1072.22 262.713 1072.86 281.3" fill="white"/></g><g id="Stroke-7"><path id="Vector_4" d="M1072.86 283.3C1072.34 283.3 1071.84 283.099 1071.47 282.739C1071.1 282.379 1070.88 281.888 1070.86 281.37C1070.26 263.45 1069.42 245.29 1068.3 225.85C1068.16 222.215 1066.59 218.783 1063.94 216.29C1063.12 215.516 1062.14 214.917 1061.08 214.527C1060.02 214.137 1058.89 213.964 1057.76 214.02C1052.36 214.37 1048.31 220.19 1048.76 227.02C1049.67 242.9 1050.38 257.58 1050.95 271.88C1050.97 272.41 1050.78 272.928 1050.42 273.318C1050.06 273.708 1049.56 273.939 1049.03 273.96C1048.5 273.981 1047.98 273.791 1047.59 273.431C1047.2 273.071 1046.97 272.57 1046.95 272.04C1046.39 257.76 1045.68 243.11 1044.77 227.25C1044.22 218.25 1049.95 210.55 1057.54 210.06C1059.19 209.975 1060.85 210.22 1062.41 210.78C1063.97 211.339 1065.4 212.203 1066.62 213.32C1070.07 216.515 1072.12 220.942 1072.33 225.64C1073.46 245.12 1074.33 263.31 1074.9 281.26C1074.91 281.524 1074.87 281.786 1074.77 282.033C1074.68 282.28 1074.54 282.506 1074.36 282.699C1074.18 282.891 1073.96 283.046 1073.72 283.154C1073.48 283.263 1073.22 283.322 1072.96 283.33L1072.86 283.3Z" fill="black"/></g></g><g id="Group-12"><g id="Fill-9"><path id="Vector_5" fill-rule="evenodd" clip-rule="evenodd" d="M1048.91 271.93C1042.81 256.717 1036.56 241.65 1030.17 226.73C1026.95 219.53 1019.52 215.92 1013.58 218.61C1007.64 221.3 1005.45 229.22 1008.58 236.35C1013.48 247.683 1018.28 259.063 1022.98 270.49" fill="white"/></g><g id="Stroke-11"><path id="Vector_6" d="M1048.91 273.93C1048.51 273.93 1048.12 273.811 1047.79 273.586C1047.45 273.361 1047.2 273.042 1047.05 272.67C1041.32 258.38 1035.2 243.61 1028.33 227.51C1026.95 224.267 1024.35 221.698 1021.09 220.36C1020.03 219.922 1018.89 219.702 1017.74 219.714C1016.59 219.726 1015.45 219.97 1014.4 220.43C1009.51 222.65 1007.73 229.43 1010.4 235.54C1014.88 245.87 1019.59 257.05 1024.82 269.73C1025.02 270.221 1025.02 270.771 1024.82 271.261C1024.61 271.75 1024.22 272.139 1023.73 272.34C1023.24 272.542 1022.69 272.54 1022.2 272.336C1021.71 272.131 1021.32 271.741 1021.12 271.25C1015.9 258.59 1011.2 247.44 1006.74 237.15C1003.15 229.04 1005.84 219.91 1012.74 216.79C1014.27 216.116 1015.93 215.753 1017.6 215.724C1019.28 215.695 1020.94 215.999 1022.5 216.62C1026.76 218.345 1030.17 221.684 1031.99 225.91C1038.88 242.06 1044.99 256.91 1050.75 271.18C1050.95 271.672 1050.94 272.222 1050.73 272.71C1050.52 273.197 1050.13 273.582 1049.64 273.78C1049.41 273.877 1049.16 273.928 1048.91 273.93V273.93Z" fill="black"/></g></g><g id="Fill-13"><path id="Vector_7" fill-rule="evenodd" clip-rule="evenodd" d="M782.051 538.27C765.911 519.08 751.321 499.66 737.531 479.94C726.001 463.39 713.371 439.24 719.381 405.59C725.391 371.94 706.181 345.39 762.231 346.33C818.281 347.27 889.841 446.59 889.841 447.44L782.051 538.27Z" fill="black"/></g></g><g id="torso"><g id="Fill-15"><path id="Vector" fill-rule="evenodd" clip-rule="evenodd" d="M736.451 342.87C736.451 367.98 717.121 388.34 685.021 388.34C652.921 388.34 620.23 367.98 620.23 342.87C620.23 317.76 646.231 297.39 678.341 297.39C710.451 297.39 736.451 317.75 736.451 342.87" fill="#2945ff"/></g><g id="Group-19"><g id="Fill-17"><path id="Vector" fill-rule="evenodd" clip-rule="evenodd" d="M828.581 671.82C828.824 674.404 828.524 677.01 827.7 679.471C826.876 681.933 825.546 684.194 823.797 686.111C822.047 688.029 819.916 689.559 817.54 690.604C815.165 691.649 812.597 692.186 810.001 692.18H514.301C509.629 692.182 505.115 690.486 501.6 687.409C498.085 684.331 495.807 680.081 495.191 675.45L510.491 407.7C509.486 400.146 510.106 392.465 512.308 385.17C514.511 377.875 518.246 371.135 523.263 365.4C528.281 359.664 534.465 355.067 541.403 351.914C548.34 348.762 555.871 347.127 563.491 347.12H757.001C759.559 347.126 762.113 347.286 764.651 347.6C803.581 352.37 831.511 387.6 828.521 426.68L828.581 671.82Z" fill="#2945ff"/></g></g><g id="Stroke-20"><path id="Vector_8" d="M685.003 390.39C652.753 390.39 622.353 370.93 618.623 347.9C618.538 347.37 618.668 346.827 618.983 346.392C619.298 345.957 619.773 345.665 620.303 345.58C620.834 345.495 621.376 345.624 621.811 345.94C622.246 346.255 622.538 346.73 622.623 347.26C626.003 368.39 654.623 386.39 685.003 386.39C712.153 386.39 731.433 371.39 734.133 348.19C734.194 347.66 734.463 347.175 734.882 346.843C735.3 346.511 735.833 346.359 736.363 346.42C736.894 346.481 737.378 346.75 737.71 347.168C738.042 347.587 738.194 348.12 738.133 348.65C735.223 373.57 713.883 390.39 685.003 390.39Z" fill="black"/></g><g id="Group-3"><g id="Fill-22"><path id="Vector_9" fill-rule="evenodd" clip-rule="evenodd" d="M595.731 377.21C594.803 377.208 593.896 376.931 593.126 376.413C592.355 375.896 591.756 375.162 591.403 374.303C591.05 373.445 590.96 372.501 591.144 371.592C591.327 370.682 591.777 369.847 592.435 369.193C593.093 368.539 593.931 368.095 594.842 367.917C595.753 367.739 596.696 367.835 597.552 368.194C598.408 368.552 599.138 369.156 599.651 369.93C600.163 370.704 600.435 371.612 600.431 372.54C600.425 373.782 599.928 374.972 599.046 375.847C598.165 376.723 596.973 377.213 595.731 377.21" fill="black"/></g><g id="Fill-24"><path id="Vector_10" fill-rule="evenodd" clip-rule="evenodd" d="M632.002 463.12C631.076 463.118 630.171 462.841 629.403 462.325C628.634 461.809 628.036 461.076 627.684 460.22C627.331 459.363 627.241 458.421 627.425 457.514C627.608 456.606 628.057 455.773 628.713 455.12C629.37 454.468 630.206 454.024 631.115 453.847C632.024 453.669 632.965 453.766 633.819 454.123C634.673 454.481 635.402 455.084 635.914 455.856C636.425 456.628 636.696 457.534 636.692 458.46C636.691 459.074 636.568 459.682 636.332 460.249C636.095 460.816 635.749 461.33 635.314 461.763C634.878 462.196 634.361 462.538 633.793 462.771C633.225 463.004 632.616 463.123 632.002 463.12" fill="black"/></g><g id="Fill-26"><path id="Vector_11" fill-rule="evenodd" clip-rule="evenodd" d="M598.461 502.98C597.533 502.978 596.627 502.701 595.856 502.183C595.086 501.666 594.486 500.932 594.133 500.073C593.781 499.215 593.69 498.271 593.874 497.362C594.058 496.452 594.507 495.617 595.166 494.963C595.824 494.309 596.661 493.865 597.572 493.687C598.483 493.509 599.426 493.605 600.282 493.964C601.138 494.322 601.869 494.926 602.381 495.7C602.894 496.474 603.165 497.382 603.161 498.31C603.156 499.552 602.658 500.742 601.777 501.617C600.896 502.493 599.703 502.983 598.461 502.98" fill="black"/></g><g id="Fill-28"><path id="Vector_12" fill-rule="evenodd" clip-rule="evenodd" d="M559.371 542.27C558.446 542.266 557.542 541.988 556.775 541.471C556.008 540.954 555.411 540.221 555.06 539.365C554.71 538.509 554.62 537.568 554.804 536.661C554.988 535.754 555.436 534.922 556.092 534.27C556.749 533.618 557.583 533.175 558.491 532.997C559.399 532.82 560.34 532.915 561.193 533.271C562.047 533.628 562.776 534.229 563.288 534.999C563.801 535.77 564.073 536.675 564.071 537.6C564.07 538.216 563.947 538.825 563.71 539.393C563.473 539.961 563.126 540.476 562.69 540.91C562.253 541.344 561.735 541.687 561.166 541.921C560.596 542.154 559.986 542.273 559.371 542.27Z" fill="black"/></g><g id="Fill-30"><path id="Vector_13" fill-rule="evenodd" clip-rule="evenodd" d="M623.43 548.66C622.502 548.658 621.595 548.381 620.825 547.863C620.055 547.346 619.455 546.612 619.102 545.753C618.749 544.895 618.659 543.951 618.843 543.042C619.027 542.132 619.476 541.297 620.134 540.643C620.793 539.989 621.63 539.545 622.541 539.367C623.452 539.189 624.395 539.286 625.251 539.644C626.107 540.002 626.837 540.606 627.35 541.38C627.862 542.154 628.134 543.062 628.13 543.99C628.125 545.232 627.627 546.422 626.746 547.297C625.865 548.173 624.672 548.663 623.43 548.66" fill="black"/></g><g id="Fill-32"><path id="Vector_14" fill-rule="evenodd" clip-rule="evenodd" d="M525.871 582.12C524.945 582.116 524.042 581.838 523.274 581.32C522.507 580.803 521.91 580.069 521.56 579.213C521.209 578.356 521.12 577.415 521.305 576.508C521.489 575.6 521.939 574.768 522.596 574.117C523.253 573.465 524.089 573.023 524.998 572.846C525.906 572.67 526.847 572.766 527.7 573.124C528.554 573.482 529.282 574.085 529.793 574.857C530.304 575.629 530.575 576.534 530.571 577.46C530.568 578.075 530.445 578.683 530.207 579.25C529.969 579.816 529.622 580.331 529.186 580.764C528.75 581.196 528.232 581.539 527.663 581.772C527.095 582.004 526.485 582.123 525.871 582.12" fill="black"/></g><g id="Fill-34"><path id="Vector_15" fill-rule="evenodd" clip-rule="evenodd" d="M589.93 588.51C589.004 588.506 588.101 588.228 587.334 587.711C586.567 587.194 585.97 586.461 585.619 585.605C585.268 584.749 585.179 583.808 585.363 582.901C585.546 581.994 585.995 581.162 586.651 580.51C587.307 579.858 588.142 579.415 589.05 579.237C589.958 579.06 590.898 579.155 591.752 579.511C592.606 579.868 593.335 580.469 593.847 581.239C594.359 582.01 594.631 582.915 594.63 583.84C594.628 584.456 594.506 585.065 594.268 585.633C594.031 586.201 593.685 586.716 593.248 587.15C592.812 587.584 592.294 587.927 591.724 588.161C591.155 588.394 590.545 588.513 589.93 588.51" fill="black"/></g><g id="Fill-36"><path id="Vector_16" fill-rule="evenodd" clip-rule="evenodd" d="M550.84 627.8C549.914 627.796 549.01 627.518 548.243 627C547.476 626.483 546.879 625.749 546.528 624.893C546.178 624.036 546.089 623.095 546.274 622.188C546.458 621.281 546.907 620.449 547.565 619.797C548.222 619.145 549.058 618.703 549.966 618.526C550.875 618.35 551.815 618.446 552.669 618.804C553.523 619.162 554.251 619.765 554.762 620.537C555.273 621.309 555.544 622.215 555.54 623.14C555.537 623.755 555.413 624.363 555.176 624.93C554.938 625.496 554.591 626.011 554.155 626.444C553.718 626.876 553.201 627.219 552.632 627.452C552.063 627.684 551.454 627.803 550.84 627.8" fill="black"/></g><g id="Fill-38"><path id="Vector_17" fill-rule="evenodd" clip-rule="evenodd" d="M614.903 634.19C613.975 634.188 613.068 633.911 612.298 633.393C611.527 632.876 610.928 632.142 610.575 631.283C610.222 630.425 610.132 629.481 610.315 628.572C610.499 627.662 610.949 626.827 611.607 626.173C612.265 625.519 613.103 625.075 614.014 624.897C614.924 624.719 615.868 624.815 616.724 625.174C617.58 625.532 618.31 626.136 618.823 626.91C619.335 627.684 619.607 628.592 619.603 629.52C619.601 630.136 619.479 630.745 619.242 631.313C619.005 631.881 618.658 632.396 618.221 632.83C617.785 633.264 617.267 633.607 616.697 633.841C616.128 634.074 615.518 634.193 614.903 634.19Z" fill="black"/></g><g id="Fill-40"><path id="Vector_18" fill-rule="evenodd" clip-rule="evenodd" d="M517.351 667.65C516.426 667.646 515.522 667.368 514.755 666.85C513.987 666.333 513.391 665.599 513.04 664.742C512.689 663.886 512.601 662.944 512.785 662.037C512.97 661.13 513.419 660.298 514.076 659.647C514.734 658.995 515.569 658.553 516.478 658.376C517.387 658.199 518.327 658.296 519.181 658.654C520.034 659.012 520.763 659.615 521.274 660.387C521.785 661.158 522.055 662.064 522.051 662.99C522.049 663.605 521.925 664.213 521.687 664.779C521.45 665.346 521.103 665.861 520.666 666.293C520.23 666.726 519.713 667.069 519.144 667.301C518.575 667.534 517.966 667.653 517.351 667.65" fill="black"/></g><g id="Fill-42"><path id="Vector_19" fill-rule="evenodd" clip-rule="evenodd" d="M581.41 674.04C580.485 674.036 579.582 673.758 578.814 673.241C578.047 672.724 577.45 671.991 577.1 671.135C576.749 670.279 576.659 669.338 576.843 668.431C577.027 667.524 577.475 666.692 578.131 666.04C578.788 665.388 579.622 664.945 580.53 664.767C581.438 664.59 582.379 664.685 583.232 665.041C584.086 665.398 584.815 665.999 585.327 666.769C585.84 667.54 586.112 668.445 586.11 669.37C586.109 669.986 585.986 670.595 585.749 671.163C585.512 671.731 585.165 672.246 584.729 672.68C584.292 673.114 583.774 673.457 583.205 673.691C582.635 673.924 582.025 674.043 581.41 674.04" fill="black"/></g><g id="Fill-44"><path id="Vector_20" fill-rule="evenodd" clip-rule="evenodd" d="M766.053 377.59C765.127 377.588 764.222 377.311 763.453 376.795C762.685 376.279 762.086 375.546 761.734 374.689C761.382 373.833 761.292 372.891 761.475 371.984C761.659 371.076 762.107 370.243 762.764 369.59C763.421 368.938 764.257 368.494 765.166 368.317C766.075 368.139 767.016 368.235 767.87 368.593C768.724 368.951 769.453 369.554 769.965 370.326C770.476 371.098 770.747 372.004 770.743 372.93C770.737 374.17 770.241 375.356 769.361 376.23C768.482 377.104 767.292 377.593 766.053 377.59" fill="black"/></g><g id="Fill-46"><path id="Vector_21" fill-rule="evenodd" clip-rule="evenodd" d="M668.492 411.06C667.567 411.056 666.664 410.778 665.896 410.261C665.129 409.744 664.532 409.011 664.182 408.155C663.831 407.299 663.742 406.358 663.925 405.451C664.109 404.544 664.557 403.712 665.213 403.06C665.87 402.408 666.705 401.965 667.612 401.787C668.52 401.61 669.461 401.705 670.315 402.061C671.168 402.417 671.897 403.019 672.41 403.789C672.922 404.56 673.194 405.465 673.192 406.39C673.191 407.005 673.068 407.615 672.831 408.183C672.594 408.75 672.247 409.266 671.811 409.7C671.374 410.134 670.856 410.477 670.287 410.71C669.717 410.944 669.107 411.063 668.492 411.06Z" fill="black"/></g><g id="Fill-48"><path id="Vector_22" fill-rule="evenodd" clip-rule="evenodd" d="M732.551 417.44C731.625 417.436 730.721 417.158 729.954 416.64C729.187 416.123 728.59 415.389 728.239 414.533C727.889 413.676 727.8 412.734 727.984 411.827C728.169 410.92 728.618 410.088 729.276 409.437C729.933 408.785 730.769 408.343 731.677 408.166C732.586 407.989 733.526 408.086 734.38 408.444C735.234 408.802 735.962 409.405 736.473 410.177C736.984 410.948 737.255 411.854 737.251 412.78C737.249 413.395 737.127 414.004 736.889 414.571C736.652 415.138 736.305 415.653 735.869 416.086C735.432 416.519 734.914 416.862 734.345 417.094C733.775 417.326 733.166 417.444 732.551 417.44" fill="black"/></g><g id="Fill-50"><path id="Vector_23" fill-rule="evenodd" clip-rule="evenodd" d="M693.461 456.74C692.536 456.736 691.632 456.458 690.865 455.941C690.098 455.424 689.501 454.691 689.15 453.835C688.8 452.979 688.71 452.038 688.894 451.131C689.078 450.224 689.526 449.392 690.182 448.74C690.838 448.088 691.673 447.645 692.581 447.467C693.489 447.29 694.429 447.385 695.283 447.741C696.137 448.097 696.866 448.699 697.378 449.469C697.89 450.24 698.163 451.145 698.161 452.07C698.159 452.686 698.037 453.295 697.8 453.863C697.563 454.431 697.216 454.946 696.779 455.38C696.343 455.814 695.825 456.157 695.256 456.391C694.686 456.624 694.076 456.743 693.461 456.74Z" fill="black"/></g><g id="Fill-52"><path id="Vector_24" fill-rule="evenodd" clip-rule="evenodd" d="M757.523 463.12C756.598 463.116 755.694 462.838 754.927 462.32C754.159 461.803 753.562 461.069 753.212 460.213C752.861 459.356 752.773 458.415 752.957 457.507C753.142 456.6 753.591 455.768 754.248 455.117C754.905 454.465 755.741 454.023 756.65 453.846C757.558 453.67 758.499 453.766 759.353 454.124C760.206 454.482 760.935 455.085 761.446 455.857C761.957 456.629 762.227 457.534 762.223 458.46C762.222 459.075 762.099 459.684 761.862 460.251C761.625 460.819 761.278 461.333 760.841 461.766C760.405 462.199 759.887 462.542 759.317 462.774C758.748 463.007 758.138 463.124 757.523 463.12" fill="black"/></g><g id="Fill-54"><path id="Vector_25" fill-rule="evenodd" clip-rule="evenodd" d="M660.002 496.59C659.076 496.588 658.172 496.312 657.404 495.796C656.635 495.28 656.037 494.548 655.684 493.692C655.332 492.836 655.241 491.895 655.424 490.987C655.606 490.08 656.054 489.247 656.71 488.594C657.366 487.941 658.201 487.497 659.109 487.318C660.017 487.139 660.958 487.234 661.812 487.59C662.667 487.946 663.396 488.548 663.909 489.318C664.422 490.089 664.694 490.994 664.692 491.92C664.691 492.535 664.568 493.143 664.332 493.71C664.096 494.278 663.75 494.793 663.314 495.226C662.879 495.66 662.362 496.004 661.794 496.238C661.225 496.472 660.617 496.591 660.002 496.59" fill="black"/></g><g id="Fill-56"><path id="Vector_26" fill-rule="evenodd" clip-rule="evenodd" d="M724.002 502.98C723.074 502.98 722.167 502.705 721.395 502.188C720.623 501.672 720.022 500.938 719.668 500.08C719.313 499.222 719.222 498.278 719.404 497.368C719.587 496.457 720.035 495.622 720.693 494.967C721.351 494.312 722.189 493.866 723.1 493.688C724.011 493.509 724.955 493.605 725.811 493.963C726.668 494.321 727.399 494.925 727.912 495.699C728.425 496.473 728.696 497.382 728.692 498.31C728.691 498.925 728.569 499.533 728.332 500.1C728.096 500.668 727.75 501.183 727.315 501.616C726.879 502.05 726.363 502.394 725.794 502.628C725.226 502.862 724.617 502.981 724.002 502.98" fill="black"/></g><g id="Fill-58"><path id="Vector_27" fill-rule="evenodd" clip-rule="evenodd" d="M684.94 542.27C684.014 542.268 683.11 541.992 682.341 541.476C681.573 540.96 680.974 540.228 680.622 539.372C680.27 538.516 680.179 537.575 680.361 536.667C680.544 535.76 680.991 534.927 681.647 534.274C682.303 533.621 683.138 533.177 684.046 532.998C684.955 532.819 685.895 532.914 686.75 533.27C687.604 533.626 688.334 534.228 688.846 534.998C689.359 535.769 689.632 536.674 689.63 537.6C689.628 538.215 689.506 538.823 689.269 539.39C689.033 539.958 688.687 540.473 688.252 540.906C687.816 541.34 687.3 541.684 686.731 541.918C686.163 542.152 685.554 542.271 684.94 542.27" fill="black"/></g><g id="Fill-60"><path id="Vector_28" fill-rule="evenodd" clip-rule="evenodd" d="M749.002 548.66C748.074 548.66 747.167 548.385 746.395 547.868C745.623 547.352 745.022 546.618 744.668 545.76C744.313 544.902 744.222 543.958 744.404 543.048C744.587 542.137 745.035 541.302 745.693 540.647C746.351 539.992 747.189 539.547 748.1 539.368C749.011 539.189 749.955 539.285 750.811 539.643C751.668 540.001 752.399 540.605 752.912 541.379C753.425 542.153 753.696 543.062 753.692 543.99C753.691 544.605 753.569 545.213 753.332 545.78C753.096 546.348 752.75 546.863 752.315 547.296C751.879 547.73 751.363 548.074 750.794 548.308C750.226 548.542 749.617 548.661 749.002 548.66" fill="black"/></g><g id="Fill-62"><path id="Vector_29" fill-rule="evenodd" clip-rule="evenodd" d="M651.441 582.12C650.516 582.116 649.612 581.838 648.845 581.32C648.077 580.803 647.48 580.069 647.13 579.213C646.779 578.356 646.691 577.415 646.875 576.508C647.06 575.6 647.509 574.768 648.166 574.117C648.823 573.465 649.659 573.023 650.568 572.846C651.476 572.67 652.417 572.766 653.271 573.124C654.124 573.482 654.853 574.085 655.364 574.857C655.875 575.629 656.145 576.534 656.141 577.46C656.133 578.7 655.634 579.887 654.753 580.761C653.873 581.634 652.682 582.123 651.441 582.12" fill="black"/></g><g id="Fill-64"><path id="Vector_30" fill-rule="evenodd" clip-rule="evenodd" d="M715.5 588.51C714.575 588.506 713.671 588.228 712.904 587.711C712.137 587.194 711.54 586.461 711.189 585.605C710.839 584.749 710.749 583.808 710.933 582.901C711.117 581.994 711.565 581.162 712.221 580.51C712.878 579.858 713.712 579.415 714.62 579.237C715.528 579.06 716.469 579.155 717.322 579.511C718.176 579.868 718.905 580.469 719.417 581.239C719.93 582.01 720.202 582.915 720.2 583.84C720.199 584.456 720.076 585.065 719.839 585.633C719.602 586.201 719.255 586.716 718.819 587.15C718.382 587.584 717.864 587.927 717.295 588.161C716.725 588.394 716.115 588.513 715.5 588.51" fill="black"/></g><g id="Fill-66"><path id="Vector_31" fill-rule="evenodd" clip-rule="evenodd" d="M676.41 627.8C675.484 627.796 674.581 627.518 673.813 627C673.046 626.483 672.449 625.749 672.099 624.893C671.748 624.036 671.659 623.095 671.844 622.188C672.028 621.281 672.478 620.449 673.135 619.797C673.792 619.145 674.628 618.703 675.537 618.526C676.445 618.35 677.386 618.446 678.239 618.804C679.093 619.162 679.821 619.765 680.332 620.537C680.843 621.309 681.114 622.215 681.11 623.14C681.107 623.755 680.984 624.363 680.746 624.93C680.508 625.496 680.162 626.011 679.725 626.444C679.289 626.876 678.771 627.219 678.202 627.452C677.634 627.684 677.024 627.803 676.41 627.8" fill="black"/></g><g id="Fill-68"><path id="Vector_32" fill-rule="evenodd" clip-rule="evenodd" d="M740.473 634.19C739.545 634.188 738.638 633.911 737.868 633.393C737.098 632.876 736.498 632.142 736.145 631.283C735.792 630.425 735.702 629.481 735.886 628.572C736.07 627.662 736.519 626.827 737.177 626.173C737.836 625.519 738.673 625.075 739.584 624.897C740.495 624.719 741.438 624.815 742.294 625.174C743.15 625.532 743.88 626.136 744.393 626.91C744.905 627.684 745.177 628.592 745.173 629.52C745.172 630.136 745.049 630.745 744.812 631.313C744.575 631.881 744.228 632.396 743.792 632.83C743.355 633.264 742.837 633.607 742.268 633.841C741.698 634.074 741.088 634.193 740.473 634.19Z" fill="black"/></g><g id="Fill-70"><path id="Vector_33" fill-rule="evenodd" clip-rule="evenodd" d="M642.92 667.65C641.994 667.648 641.089 667.371 640.321 666.855C639.552 666.339 638.954 665.606 638.601 664.749C638.249 663.893 638.159 662.951 638.343 662.044C638.526 661.136 638.974 660.303 639.631 659.65C640.288 658.997 641.124 658.554 642.033 658.377C642.942 658.199 643.883 658.295 644.737 658.653C645.591 659.011 646.32 659.614 646.832 660.386C647.343 661.158 647.614 662.064 647.61 662.99C647.609 663.604 647.486 664.212 647.25 664.779C647.013 665.345 646.667 665.86 646.232 666.293C645.796 666.726 645.279 667.068 644.711 667.301C644.143 667.534 643.534 667.653 642.92 667.65" fill="black"/></g><g id="Fill-72"><path id="Vector_34" fill-rule="evenodd" clip-rule="evenodd" d="M707.002 674.04C706.076 674.038 705.172 673.762 704.404 673.246C703.635 672.73 703.037 671.998 702.684 671.142C702.332 670.286 702.241 669.345 702.424 668.437C702.606 667.53 703.054 666.697 703.71 666.044C704.366 665.391 705.201 664.947 706.109 664.768C707.017 664.589 707.958 664.684 708.812 665.04C709.667 665.396 710.396 665.998 710.909 666.768C711.422 667.539 711.694 668.444 711.692 669.37C711.691 669.985 711.568 670.593 711.332 671.16C711.096 671.728 710.75 672.243 710.314 672.676C709.879 673.11 709.362 673.454 708.794 673.688C708.225 673.922 707.617 674.041 707.002 674.04" fill="black"/></g><g id="Fill-74"><path id="Vector_35" fill-rule="evenodd" clip-rule="evenodd" d="M794.062 411.06C793.137 411.056 792.234 410.778 791.467 410.261C790.7 409.744 790.103 409.011 789.752 408.155C789.401 407.299 789.312 406.358 789.495 405.451C789.679 404.544 790.127 403.712 790.784 403.06C791.44 402.408 792.275 401.965 793.183 401.787C794.091 401.61 795.031 401.705 795.885 402.061C796.739 402.417 797.468 403.019 797.98 403.789C798.492 404.56 798.764 405.465 798.762 406.39C798.761 407.005 798.638 407.615 798.401 408.183C798.164 408.75 797.818 409.266 797.381 409.7C796.944 410.134 796.427 410.477 795.857 410.71C795.288 410.944 794.678 411.063 794.062 411.06" fill="black"/></g><g id="Fill-76"><path id="Vector_36" fill-rule="evenodd" clip-rule="evenodd" d="M819.002 456.74C818.076 456.738 817.172 456.462 816.404 455.946C815.635 455.43 815.037 454.698 814.684 453.842C814.332 452.986 814.241 452.045 814.424 451.137C814.606 450.23 815.054 449.397 815.71 448.744C816.366 448.091 817.201 447.647 818.109 447.468C819.017 447.289 819.958 447.384 820.812 447.74C821.667 448.096 822.396 448.698 822.909 449.468C823.422 450.239 823.694 451.144 823.692 452.07C823.691 452.685 823.568 453.293 823.332 453.86C823.096 454.428 822.75 454.943 822.314 455.376C821.879 455.81 821.362 456.154 820.794 456.388C820.225 456.622 819.617 456.741 819.002 456.74" fill="black"/></g><g id="Fill-78"><path id="Vector_37" fill-rule="evenodd" clip-rule="evenodd" d="M785.531 496.59C784.606 496.586 783.703 496.308 782.935 495.791C782.168 495.274 781.572 494.541 781.221 493.685C780.87 492.829 780.781 491.888 780.964 490.981C781.148 490.074 781.596 489.242 782.252 488.59C782.909 487.938 783.744 487.495 784.652 487.317C785.559 487.14 786.5 487.235 787.354 487.591C788.207 487.947 788.936 488.549 789.449 489.319C789.961 490.09 790.233 490.995 790.231 491.92C790.23 492.535 790.107 493.145 789.87 493.713C789.633 494.281 789.286 494.796 788.85 495.23C788.413 495.664 787.895 496.007 787.326 496.241C786.756 496.474 786.147 496.593 785.531 496.59" fill="black"/></g><g id="Fill-80"><path id="Vector_38" fill-rule="evenodd" clip-rule="evenodd" d="M810.5 542.27C809.575 542.266 808.671 541.988 807.904 541.471C807.137 540.954 806.54 540.221 806.189 539.365C805.839 538.509 805.749 537.568 805.933 536.661C806.117 535.754 806.565 534.922 807.221 534.27C807.878 533.618 808.712 533.175 809.62 532.997C810.528 532.82 811.469 532.915 812.322 533.271C813.176 533.628 813.905 534.229 814.417 534.999C814.93 535.77 815.202 536.675 815.2 537.6C815.199 538.216 815.076 538.825 814.839 539.393C814.602 539.961 814.255 540.476 813.819 540.91C813.382 541.344 812.864 541.687 812.295 541.921C811.725 542.154 811.115 542.273 810.5 542.27" fill="black"/></g><g id="Fill-82"><path id="Vector_39" fill-rule="evenodd" clip-rule="evenodd" d="M777.002 582.12C776.076 582.118 775.171 581.841 774.403 581.325C773.634 580.809 773.036 580.076 772.684 579.22C772.331 578.363 772.241 577.421 772.425 576.514C772.608 575.606 773.057 574.773 773.713 574.12C774.37 573.468 775.206 573.024 776.115 572.847C777.024 572.669 777.965 572.766 778.819 573.123C779.673 573.481 780.402 574.084 780.914 574.856C781.425 575.628 781.696 576.534 781.692 577.46C781.687 578.7 781.19 579.886 780.311 580.76C779.431 581.634 778.241 582.123 777.002 582.12" fill="black"/></g><g id="Fill-84"><path id="Vector_40" fill-rule="evenodd" clip-rule="evenodd" d="M802.002 627.8C801.076 627.798 800.171 627.521 799.403 627.005C798.634 626.489 798.036 625.756 797.684 624.899C797.331 624.043 797.241 623.101 797.425 622.194C797.608 621.286 798.057 620.453 798.713 619.8C799.37 619.148 800.206 618.704 801.115 618.527C802.024 618.349 802.965 618.445 803.819 618.803C804.673 619.161 805.402 619.764 805.914 620.536C806.425 621.308 806.696 622.214 806.692 623.14C806.687 624.38 806.19 625.566 805.311 626.44C804.431 627.314 803.241 627.803 802.002 627.8" fill="black"/></g><g id="Fill-86"><path id="Vector_41" fill-rule="evenodd" clip-rule="evenodd" d="M768.48 667.65C767.555 667.646 766.651 667.368 765.884 666.85C765.116 666.333 764.519 665.599 764.169 664.742C763.818 663.886 763.73 662.944 763.914 662.037C764.099 661.13 764.548 660.298 765.205 659.647C765.863 658.995 766.698 658.553 767.607 658.376C768.515 658.199 769.456 658.296 770.31 658.654C771.163 659.012 771.892 659.615 772.403 660.387C772.914 661.158 773.184 662.064 773.18 662.99C773.179 663.605 773.056 664.214 772.819 664.781C772.582 665.348 772.235 665.863 771.798 666.296C771.362 666.729 770.844 667.072 770.274 667.304C769.705 667.536 769.095 667.654 768.48 667.65" fill="black"/></g></g></g><g id="right"><g id="Group-91"><g id="Fill-88"><path id="Vector_42" fill-rule="evenodd" clip-rule="evenodd" d="M388.939 244.39L299.939 240.73C297.893 240.663 295.854 241.004 293.941 241.733C292.028 242.461 290.279 243.563 288.796 244.974C287.313 246.384 286.125 248.076 285.301 249.95C284.478 251.824 284.035 253.843 283.999 255.89C283.559 269.003 283.259 282.157 283.099 295.35C282.939 308.543 282.966 321.8 283.179 335.12C283.639 361.79 284.829 388.69 287.689 416.27C289.259 431.09 291.299 446.11 294.199 461.5C295.679 469.22 297.389 477.03 299.399 484.98L301.019 490.98C301.549 492.98 302.199 494.98 302.789 497.05L303.239 498.58L303.469 499.34L303.789 500.34L305.139 504.45L306.549 508.55L308.139 512.79C312.3 524.04 317.534 534.863 323.769 545.11C329.841 555.035 337.243 564.083 345.769 572C347.839 574 350.089 575.74 352.299 577.55C353.409 578.43 354.589 579.24 355.729 580.09L357.459 581.34L359.249 582.51C361.609 584.1 364.079 585.51 366.559 586.92L370.369 588.85C371.629 589.5 372.959 590.03 374.259 590.62C384.747 595.152 395.967 597.754 407.379 598.3C430.149 599.53 453.049 592.8 473.989 581.2C475.319 580.52 476.609 579.74 477.899 578.98C479.189 578.22 480.499 577.47 481.779 576.68C484.309 575.04 486.889 573.49 489.379 571.77C491.869 570.05 494.379 568.32 496.789 566.52L498.609 565.16L500.279 563.9L503.549 561.36L506.159 559.26L508.619 557.26C510.219 555.91 511.859 554.56 513.399 553.2C516.549 550.49 519.579 547.75 522.529 545C533.9 534.358 544.717 523.14 554.939 511.39C564.939 500 574.249 488.45 583.189 476.78L507.899 419.11C503.689 415.9 497.899 416.36 495.019 420.11C487.369 429.82 479.539 439.23 471.539 448.11C463.863 456.678 455.731 464.826 447.179 472.52C445.129 474.33 443.089 476.08 441.069 477.73L439.549 478.96L439.169 479.27L438.929 479.46L438.479 479.8L437.609 480.49L436.989 480.96C435.33 482.195 433.596 483.327 431.799 484.35C428.209 486.35 424.169 487.86 419.999 487.6C418.98 487.52 417.974 487.325 416.999 487.02C416.007 486.723 415.059 486.296 414.179 485.75C412.408 484.667 410.852 483.267 409.589 481.62C407.113 478.292 405.21 474.574 403.959 470.62C403.789 470.03 403.609 469.39 403.379 468.8L403.299 468.57C403.299 468.49 403.249 468.45 403.189 468.26L402.919 467.31L402.359 465.43C401.969 464.19 401.629 462.89 401.279 461.58C400.929 460.27 400.559 459 400.279 457.64C398.909 452.35 397.779 446.72 396.679 441.06C394.569 429.63 392.909 417.7 391.629 405.51C387.859 368.81 387.139 330.28 387.629 291.62C387.759 283.79 387.909 275.95 388.149 268.1C387.909 275.95 387.759 283.79 387.629 291.62C394.309 291.71 399.409 289.17 402.869 285.02C404.656 282.86 406.013 280.379 406.869 277.71C407.818 274.801 408.334 271.769 408.399 268.71C408.559 262.28 407.099 256.38 403.849 252.02C400.599 247.66 395.709 244.81 389.019 244.53" fill="white"/></g><g id="Stroke-90"><path id="Vector_43" d="M412.659 600.47C410.859 600.47 409.079 600.42 407.299 600.33C395.646 599.789 384.189 597.129 373.489 592.48L372.279 591.95C371.359 591.55 370.419 591.14 369.479 590.66L365.679 588.73C362.799 587.1 360.479 585.73 358.159 584.2L356.399 583.04L354.589 581.74L353.369 580.85C352.619 580.3 351.839 579.74 351.079 579.14L349.869 578.14C348.059 576.66 346.179 575.14 344.419 573.46C335.766 565.428 328.253 556.249 322.089 546.18C315.78 535.821 310.485 524.877 306.279 513.5L304.679 509.26L303.259 505.11L300.879 497.62C300.689 496.96 300.499 496.31 300.299 495.62C299.879 494.22 299.469 492.82 299.099 491.44L297.479 485.44C295.539 477.8 293.829 470.09 292.239 461.82C289.579 447.7 287.449 432.82 285.709 416.42C283.149 391.75 281.709 365.91 281.189 335.1C280.969 322.25 280.939 309.22 281.109 295.26C281.239 282.81 281.529 269.89 282.009 255.77C282.087 253.436 282.626 251.14 283.596 249.015C284.566 246.89 285.947 244.978 287.659 243.39C289.305 241.837 291.244 240.629 293.363 239.836C295.482 239.042 297.738 238.68 299.999 238.77L388.999 242.44C395.909 242.72 401.569 245.59 405.359 250.74C408.769 255.32 410.479 261.52 410.299 268.66C410.235 271.93 409.686 275.172 408.669 278.28C407.744 281.179 406.278 283.877 404.349 286.23C402.527 288.41 400.267 290.184 397.716 291.437C395.164 292.689 392.379 293.392 389.539 293.5C388.999 337.92 390.269 373.5 393.539 405.24C394.869 417.87 396.539 429.78 398.539 440.63C399.539 445.71 400.709 451.63 402.119 457.07C402.339 458.07 402.569 458.91 402.809 459.78L403.139 461C403.459 462.19 403.819 463.54 404.199 464.76L405.199 468.02C405.459 468.7 405.659 469.4 405.819 469.95C406.99 473.672 408.778 477.171 411.109 480.3C412.211 481.751 413.566 482.991 415.109 483.96C415.853 484.416 416.653 484.772 417.489 485.02C418.33 485.289 419.199 485.457 420.079 485.52C423.259 485.72 426.759 484.74 430.779 482.52C432.513 481.544 434.183 480.459 435.779 479.27L438.279 477.33L439.799 476.1C441.619 474.61 443.599 472.92 445.799 470.94C454.299 463.298 462.381 455.203 470.009 446.69C477.499 438.41 485.369 429.03 493.389 418.83C496.989 414.26 504.019 413.68 509.069 417.52L584.359 475.18C584.568 475.34 584.744 475.539 584.876 475.767C585.008 475.995 585.093 476.247 585.128 476.508C585.162 476.769 585.145 477.035 585.076 477.289C585.008 477.543 584.89 477.781 584.729 477.99C575.029 490.65 565.729 501.99 556.399 512.7C546.147 524.514 535.292 535.793 523.879 546.49C520.809 549.35 517.719 552.12 514.689 554.74C513.599 555.69 512.449 556.66 511.299 557.62L507.409 560.84L504.779 562.95L497.959 568.15C495.469 570 492.959 571.78 490.479 573.45C488.759 574.64 486.969 575.77 485.239 576.86L482.839 578.39C481.979 578.93 481.129 579.39 480.279 579.92C479.819 580.19 479.359 580.45 478.909 580.73L478.289 581.09C477.189 581.74 476.059 582.41 474.889 583.01C454.239 594.48 432.809 600.47 412.659 600.47ZM299.289 242.75C295.978 242.749 292.791 244.012 290.379 246.28C289.042 247.521 287.967 249.016 287.216 250.679C286.466 252.341 286.055 254.137 286.009 255.96C285.529 270.05 285.239 282.96 285.109 295.37C284.939 309.29 284.969 322.28 285.189 335.09C285.709 365.78 287.139 391.51 289.689 416.09C291.409 432.41 293.529 447.15 296.169 461.16C297.739 469.34 299.439 476.98 301.349 484.52L302.959 490.52C303.319 491.86 303.729 493.23 304.139 494.59L304.719 496.59L305.719 499.85L307.059 503.95L308.459 508.02L310.039 512.2C314.146 523.342 319.323 534.058 325.499 544.2C331.478 553.967 338.765 562.87 347.159 570.66C348.829 572.26 350.569 573.66 352.399 575.16L353.599 576.16C354.279 576.69 354.999 577.21 355.719 577.73L356.969 578.64L358.679 579.88L360.389 581C362.779 582.61 365.329 584.06 367.579 585.34L371.309 587.23C372.139 587.65 372.989 588.02 373.889 588.41L375.119 588.95C385.371 593.397 396.346 595.942 407.509 596.46C428.459 597.59 451.119 591.76 473.069 579.61C474.179 579.03 475.219 578.42 476.309 577.78L476.929 577.41L478.319 576.59C479.139 576.12 479.959 575.59 480.759 575.14C481.559 574.69 482.349 574.14 483.169 573.61C484.859 572.54 486.609 571.44 488.279 570.28C490.729 568.63 493.199 566.88 495.639 565.07L499.109 562.46L502.359 559.94L508.789 554.69C509.919 553.74 511.039 552.8 512.119 551.85C515.119 549.26 518.179 546.51 521.209 543.69C532.524 533.084 543.285 521.903 553.449 510.19C562.359 500.02 571.189 489.19 580.399 477.27L506.699 420.83C503.379 418.3 498.849 418.57 496.599 421.44C488.399 431.85 480.699 441.03 473.039 449.5C465.307 458.119 457.122 466.321 448.519 474.07C446.229 476.07 444.219 477.8 442.339 479.33L438.189 482.61C436.465 483.904 434.658 485.084 432.779 486.14C428.069 488.75 423.859 489.89 419.879 489.65C418.691 489.562 417.516 489.337 416.379 488.98C415.228 488.632 414.125 488.138 413.099 487.51C411.132 486.298 409.4 484.74 407.989 482.91C405.37 479.407 403.343 475.499 401.989 471.34V471.22C401.849 470.74 401.669 470.12 401.459 469.56L401.379 469.34C401.317 469.183 401.263 469.023 401.219 468.86L400.389 466.06C399.989 464.78 399.619 463.39 399.299 462.16L398.969 460.96C398.719 460.04 398.469 459.11 398.249 458.15C396.829 452.63 395.639 446.66 394.629 441.5C392.629 430.5 390.899 418.5 389.569 405.78C386.239 373.4 384.969 337.13 385.569 291.65C385.699 283.81 385.839 277.19 385.999 271.13C385.999 270.28 386.049 269.43 386.079 268.59V268.15C386.087 267.62 386.305 267.114 386.686 266.745C387.067 266.375 387.579 266.172 388.109 266.18C388.64 266.188 389.145 266.406 389.515 266.787C389.884 267.168 390.087 267.68 390.079 268.21V268.27C389.889 274.61 389.729 281.45 389.589 289.67C391.83 289.546 394.021 288.966 396.03 287.965C398.038 286.965 399.821 285.564 401.269 283.85C402.881 281.88 404.1 279.619 404.859 277.19C405.755 274.457 406.237 271.606 406.289 268.73C406.449 262.5 405.009 257.16 402.139 253.3C399.039 249.1 394.569 246.85 388.829 246.61L299.829 242.95L299.289 242.75Z" fill="black"/></g></g><g id="Group-95"><g id="Fill-92"><path id="Vector_44" fill-rule="evenodd" clip-rule="evenodd" d="M307.936 246.93C308.523 231.957 309.253 217.017 310.126 202.11C310.606 194.2 305.726 187.45 299.216 187.03C292.706 186.61 287.046 192.74 286.556 200.73C285.516 219.17 284.663 237.693 283.996 256.3" fill="white"/></g><g id="Stroke-94"><path id="Vector_45" d="M283.997 258.3H283.927C283.665 258.291 283.406 258.23 283.167 258.121C282.928 258.012 282.713 257.857 282.533 257.665C282.354 257.473 282.214 257.247 282.122 257.001C282.031 256.755 281.988 256.493 281.997 256.23C282.587 238.5 283.447 219.79 284.557 200.62C284.76 195.918 286.812 191.486 290.267 188.29C291.488 187.171 292.92 186.306 294.479 185.746C296.038 185.187 297.693 184.943 299.347 185.03C306.937 185.52 312.667 193.24 312.117 202.23C311.207 218.14 310.497 232.79 309.937 247.01C309.927 247.273 309.865 247.531 309.755 247.769C309.644 248.008 309.488 248.222 309.295 248.401C309.102 248.579 308.876 248.718 308.629 248.808C308.382 248.899 308.12 248.94 307.857 248.93C307.595 248.919 307.337 248.857 307.098 248.747C306.859 248.637 306.645 248.481 306.467 248.288C306.288 248.094 306.15 247.868 306.059 247.621C305.968 247.375 305.927 247.113 305.937 246.85C306.497 232.61 307.207 217.94 308.117 201.99C308.527 195.19 304.477 189.37 299.117 188.99C297.986 188.935 296.855 189.107 295.792 189.497C294.729 189.887 293.755 190.487 292.927 191.26C290.277 193.756 288.711 197.192 288.567 200.83C287.467 219.95 286.567 238.63 286.017 256.34C286.007 256.867 285.789 257.368 285.411 257.735C285.032 258.103 284.524 258.305 283.997 258.3Z" fill="black"/></g></g><g id="Group-99"><g id="Fill-96"><path id="Vector_46" fill-rule="evenodd" clip-rule="evenodd" d="M307.938 246.93C314.037 231.723 320.284 216.657 326.677 201.73C329.907 194.53 337.327 190.92 343.277 193.61C349.227 196.3 351.407 204.22 348.277 211.35C343.377 222.66 338.608 234.04 333.878 245.49" fill="white"/></g><g id="Stroke-98"><path id="Vector_47" d="M307.939 248.93C307.685 248.927 307.434 248.877 307.199 248.78C306.707 248.582 306.314 248.197 306.106 247.71C305.898 247.222 305.892 246.672 306.089 246.18C311.859 231.8 317.989 217.01 324.839 200.94C326.654 196.703 330.068 193.353 334.339 191.62C335.896 190.999 337.56 190.695 339.236 190.724C340.912 190.753 342.565 191.116 344.099 191.79C350.989 194.91 353.669 204.04 350.099 212.16C345.659 222.41 340.949 233.56 335.719 246.25C335.632 246.51 335.493 246.749 335.309 246.953C335.126 247.157 334.903 247.321 334.654 247.434C334.404 247.548 334.134 247.61 333.86 247.615C333.586 247.62 333.314 247.569 333.061 247.465C332.807 247.36 332.578 247.205 332.387 247.008C332.196 246.811 332.048 246.578 331.951 246.321C331.854 246.065 331.811 245.791 331.825 245.518C331.838 245.244 331.908 244.976 332.029 244.73C337.269 232.02 341.979 220.84 346.439 210.56C349.149 204.43 347.369 197.65 342.439 195.43C341.386 194.97 340.251 194.726 339.101 194.714C337.952 194.702 336.812 194.922 335.749 195.36C332.482 196.706 329.877 199.286 328.499 202.54C321.669 218.54 315.549 233.32 309.789 247.67C309.641 248.041 309.386 248.358 309.057 248.583C308.727 248.808 308.338 248.928 307.939 248.93Z" fill="black"/></g></g><g id="Fill-100"><path id="Vector_48" fill-rule="evenodd" clip-rule="evenodd" d="M467 422.44L574.8 513.27C590.95 494.08 605.53 474.66 619.33 454.94C624.797 447.212 628.593 438.429 630.476 429.153C632.36 419.876 632.29 410.308 630.27 401.06C628.264 392.001 624.392 383.46 618.901 375.98C613.411 368.501 606.422 362.248 598.38 357.62C582.531 348.349 563.912 344.983 545.82 348.12C528.82 351.19 513.7 360.03 503.82 374.18C492 391.08 479.67 407.39 467 422.44Z" fill="black"/></g></g></g></g></g><g id="Hairstyle" transform="translate(637 450) scale(1 1)"><g id="Hairstyle/Flat Top"><g id="hair"><path id="Hair" fill-rule="evenodd" clip-rule="evenodd" d="M129 86C129 118.584 103.032 145 70.9996 145C38.967 145 13 118.584 13 86C13 53.4155 38.967 27 70.9996 27C103.032 27 129 53.4155 129 86" fill="black"/><path id="Hair_2" fill-rule="evenodd" clip-rule="evenodd" d="M13 25H93.9549C113.31 25 129 43.3464 129 65.9784V86H13V25Z" fill="black"/></g><g id="head"><path id="Fill 5" fill-rule="evenodd" clip-rule="evenodd" d="M131.754 107.252C131.754 115.665 124.934 122.485 116.521 122.485C108.108 122.485 101.288 115.665 101.288 107.252C101.288 98.8389 108.108 92.0189 116.521 92.0189C124.934 92.0189 131.754 98.8389 131.754 107.252" fill="white"/><g id="Group 9"><path id="Fill 7" fill-rule="evenodd" clip-rule="evenodd" d="M116.521 94.0189C109.224 94.0189 103.288 99.9549 103.288 107.252C103.288 114.549 109.224 120.485 116.521 120.485C123.818 120.485 129.754 114.549 129.754 107.252C129.754 99.9549 123.818 94.0189 116.521 94.0189M116.521 124.485C107.019 124.485 99.2881 116.754 99.2881 107.252C99.2881 97.7499 107.019 90.0189 116.521 90.0189C126.023 90.0189 133.754 97.7499 133.754 107.252C133.754 116.754 126.023 124.485 116.521 124.485" fill="black"/></g><path id="Fill 10" fill-rule="evenodd" clip-rule="evenodd" d="M65.4174 206.747V206.747C46.4604 206.747 28.9834 192.209 28.9834 174.852L45.0934 115.189C45.0934 97.832 40.4604 83.761 59.4174 83.761H79.4174C98.3744 83.761 93.7414 97.832 93.7414 115.189V175.319C93.7414 192.676 84.3744 206.747 65.4174 206.747" fill="white"/><path id="Fill 12" fill-rule="evenodd" clip-rule="evenodd" d="M30.9854 175.112C31.1584 190.929 47.1744 204.747 65.4184 204.747C84.8274 204.747 91.7424 189.546 91.7424 175.319V115.189C91.7424 112.141 91.8804 109.245 92.0144 106.444C92.3814 98.737 92.6994 92.082 89.5194 88.747C87.6034 86.738 84.2994 85.761 79.4184 85.761H59.4184C54.5374 85.761 51.2334 86.738 49.3174 88.747C46.1374 92.082 46.4544 98.737 46.8224 106.444C46.9554 109.245 47.0944 112.141 47.0944 115.189V115.455L30.9854 175.112ZM65.4184 208.747C44.9434 208.747 26.9844 192.908 26.9844 174.852V174.587L43.0934 114.925C43.0864 112.067 42.9544 109.306 42.8264 106.634C42.4154 98.01 42.0604 90.562 46.4224 85.987C49.1334 83.143 53.3844 81.761 59.4184 81.761H79.4184C85.4524 81.761 89.7034 83.143 92.4144 85.987C96.7764 90.562 96.4214 98.01 96.0094 106.634C95.8784 109.389 95.7424 112.237 95.7424 115.189V175.319C95.7424 195.626 83.8394 208.747 65.4184 208.747V208.747Z" fill="black"/><path id="Fill 14" fill-rule="evenodd" clip-rule="evenodd" d="M77.0175 154.679C59.5495 154.679 43.7875 144.32 36.8605 128.287L36.2105 126.782C26.6485 104.651 36.8745 78.8669 59.0055 69.3049C64.5305 66.9189 70.3575 65.7089 76.3265 65.7089C93.7935 65.7089 109.557 76.0689 116.483 92.1009L117.133 93.6059C121.765 104.327 121.945 116.21 117.64 127.065C113.334 137.921 105.059 146.451 94.3375 151.083C88.8135 153.469 82.9865 154.679 77.0175 154.679" fill="white"/><path id="Fill 16" fill-rule="evenodd" clip-rule="evenodd" d="M76.3274 63.7089H76.3264C70.0824 63.7089 63.9884 64.9749 58.2124 67.4699C47.0014 72.3129 38.3474 81.2329 33.8454 92.5849C29.3424 103.938 29.5304 116.364 34.3744 127.575L35.0244 129.08C42.2684 145.846 58.7514 156.679 77.0174 156.679C83.2604 156.679 89.3544 155.414 95.1304 152.918C106.341 148.075 114.995 139.155 119.498 127.803C124 116.45 123.812 104.024 118.968 92.8129L118.318 91.3079C111.075 74.5419 94.5924 63.7089 76.3274 63.7089M76.3264 67.7089C92.4694 67.7089 107.837 77.1329 114.646 92.8949L115.296 94.3989C124.435 115.552 114.696 140.108 93.5444 149.247C88.1524 151.576 82.5394 152.679 77.0174 152.679C60.8744 152.679 45.5064 143.255 38.6964 127.494L38.0464 125.989C28.9074 104.836 38.6464 80.2799 59.7994 71.1419V71.1419C65.1904 68.8119 70.8044 67.7089 76.3264 67.7089" fill="black"/><path id="Fill 18" fill-rule="evenodd" clip-rule="evenodd" d="M36.065 122.485C27.652 122.485 20.832 115.665 20.832 107.252C20.832 98.8388 27.652 92.0188 36.065 92.0188C37.117 92.0188 38.143 92.1258 39.135 92.3288" fill="white"/><path id="Fill 20" fill-rule="evenodd" clip-rule="evenodd" d="M36.065 124.485C26.563 124.485 18.832 116.754 18.832 107.252C18.832 97.7498 26.563 90.0188 36.065 90.0188C37.232 90.0188 38.4 90.1368 39.536 90.3688C40.618 90.5908 41.316 91.6468 41.094 92.7298C40.873 93.8118 39.817 94.5088 38.734 94.2878C37.862 94.1098 36.964 94.0188 36.065 94.0188C28.768 94.0188 22.832 99.9548 22.832 107.252C22.832 114.549 28.768 120.485 36.065 120.485C37.17 120.485 38.065 121.381 38.065 122.485C38.065 123.589 37.17 124.485 36.065 124.485" fill="black"/></g><circle id="Oval" cx="42" cy="81" r="14" fill="black"/><rect id="Rectangle" x="53" y="57" width="55" height="18" fill="black"/><path id="Fill 9" fill-rule="evenodd" clip-rule="evenodd" d="M83.1474 123.992H90.7084C92.7934 123.992 94.3374 120.961 93.8714 117.782L90.6874 96.0426C89.9484 90.9976 85.4234 90.7156 84.4294 95.6516L80.0524 117.391C79.3944 120.662 80.9554 123.992 83.1474 123.992" fill="#2945ff"/></g></g><g id="Face" transform="translate(657 540) scale(1 1)"><g id="Face/Goatee"><g id="Group 7"><path id="Fill 1" fill-rule="evenodd" clip-rule="evenodd" d="M75.7535 67.0484L67.0905 75.7114C65.0555 77.7464 61.7555 77.7464 59.7195 75.7114L51.0565 67.0484C49.0215 65.0134 49.0215 61.7134 51.0565 59.6774L59.7195 51.0144C61.7555 48.9794 65.0555 48.9794 67.0905 51.0144L75.7535 59.6774C77.7885 61.7134 77.7885 65.0134 75.7535 67.0484" fill="black"/></g></g></g><g id="Expression" transform="translate(685 531) scale(1 1)"><g id="Expression/Laughing"><path id="Path" fill-rule="evenodd" clip-rule="evenodd" d="M37.018 61.608C26.54 61.608 22.625 53.545 22.02 49.281C21.938 48.708 22.109 48.127 22.489 47.689C22.869 47.251 23.42 47 24 47H50.036C50.616 47 51.167 47.251 51.547 47.689C51.927 48.127 52.098 48.708 52.016 49.281L51.9612 49.6253C51.1995 53.9638 47.2203 61.608 37.018 61.608Z" fill="black"/><path id="Fill 7" fill-rule="evenodd" clip-rule="evenodd" d="M56.5038 22.9646C56.1028 22.9646 55.6978 22.8446 55.3458 22.5936L46.5388 16.3276C45.9988 15.9426 45.6838 15.3156 45.6988 14.6536C45.7128 13.9906 46.0558 13.3786 46.6118 13.0186L55.4188 7.32063C56.3468 6.72063 57.5848 6.98663 58.1848 7.91363C58.7848 8.84163 58.5188 10.0796 57.5918 10.6796L51.2588 14.7766L57.6648 19.3346C58.5648 19.9756 58.7758 21.2236 58.1348 22.1236C57.7448 22.6726 57.1288 22.9646 56.5038 22.9646" fill="black"/><path id="Fill 7_2" fill-rule="evenodd" clip-rule="evenodd" d="M18.7003 22.9646C19.1013 22.9646 19.5063 22.8446 19.8583 22.5936L28.6653 16.3276C29.2053 15.9426 29.5203 15.3156 29.5053 14.6536C29.4913 13.9906 29.1483 13.3786 28.5923 13.0186L19.7853 7.32063C18.8573 6.72063 17.6193 6.98663 17.0193 7.91363C16.4193 8.84163 16.6853 10.0796 17.6123 10.6796L23.9453 14.7766L17.5393 19.3346C16.6393 19.9756 16.4283 21.2236 17.0693 22.1236C17.4593 22.6726 18.0753 22.9646 18.7003 22.9646" fill="black"/></g></g><g id="Glasses" transform="translate(666 518) scale(105 93)"><g id="Glasses/No Items" stroke="none" stroke-width="1" fill="none" fill-rule="evenodd" fill-opacity="0"/></g></g></g></svg>